<svg xmlns="http://www.w3.org/2000/svg" viewBox="0 0 16 16" id="Uber--Streamline-Font-Awesome" height="16" width="16">
  <desc>
    Uber Streamline Icon: https://streamlinehq.com
  </desc>
<!--! Font Awesome Free 6.5.2 by @fontawesome - https://fontawesome.com License - https://fontawesome.com/license/free (Icons: CC BY 4.0, Fonts: SIL OFL 1.1, Code: MIT License) Copyright 2024 Fonticons, Inc.-->
  <path d="M14.655242857142856 0.16H1.348242857142857c-0.6545 0 -1.1864999999999999 0.532 -1.1864999999999999 1.1864999999999999V14.649999999999999c0 0.6579999999999999 0.532 1.19 1.1864999999999999 1.19h13.3035c0.6545 0 1.1864999999999999 -0.532 1.1864999999999999 -1.1864999999999999V1.3464999999999998c0.0035 -0.6545 -0.5285 -1.1864999999999999 -1.183 -1.1864999999999999Zm-6.177499999999999 12.5685c-2.611 0.26249999999999996 -4.942 -1.6415 -5.2044999999999995 -4.2524999999999995h3.304v0.714c0 0.12949999999999998 0.105 0.238 0.238 0.238h2.3765c0.12949999999999998 0 0.238 -0.105 0.238 -0.238v-2.3765c0 -0.12949999999999998 -0.105 -0.238 -0.238 -0.238h-2.3765c-0.12949999999999998 0 -0.238 0.105 -0.238 0.238v0.714h-3.304c0.245 -2.429 2.2889999999999997 -4.277 4.7284999999999995 -4.277s4.483499999999999 1.8479999999999999 4.7284999999999995 4.277c0.26249999999999996 2.6075 -1.6415 4.9384999999999994 -4.2524999999999995 5.201Z" fill="#000000" stroke-width="0.0357"></path>
</svg>